<svg width="40" height="40" viewBox="0 0 40 40" fill="none" xmlns="http://www.w3.org/2000/svg">
<path fill-rule="evenodd" clip-rule="evenodd" d="M20 40C31.0457 40 40 31.0457 40 20C40 8.9543 31.0457 0 20 0C8.9543 0 0 8.9543 0 20C0 31.0457 8.9543 40 20 40ZM14.5018 12.1126C14.2705 12.1999 14.0604 12.3355 13.8854 12.5102L12.8514 13.5442C12.1115 14.2843 11.7865 15.3913 12.1485 16.4214C13.077 19.06 14.5877 21.4556 16.5683 23.4307C18.5435 25.4116 20.9394 26.9224 23.5781 27.8509C24.6091 28.2139 25.715 27.8889 26.455 27.1489L27.489 26.1148C28.231 25.3738 28.155 24.1487 27.326 23.5037L25.0201 21.7096C24.8112 21.5473 24.5682 21.4346 24.3094 21.38C24.0506 21.3255 23.7827 21.3304 23.5261 21.3946L21.3372 21.9416C21.2236 21.9701 21.1046 21.9687 20.9917 21.9375C20.8789 21.9063 20.776 21.8464 20.6932 21.7636L18.2363 19.3065C18.1537 19.2238 18.0939 19.1211 18.0627 19.0084C18.0315 18.8957 18.03 18.7769 18.0583 18.6635L18.6053 16.4734C18.7353 15.9534 18.6193 15.4023 18.2903 14.9793L16.4953 12.6732C16.3435 12.4781 16.1519 12.3174 15.9332 12.202C15.7146 12.0865 15.4739 12.0188 15.2271 12.0034C14.9803 11.988 14.7331 12.0252 14.5018 12.1126Z" fill="white"/>
</svg>
