<svg width="34" height="36" viewBox="0 0 34 36" fill="none" xmlns="http://www.w3.org/2000/svg">
<path d="M31.7992 4.09597C30.9774 2.89912 29.8539 1.94066 28.5425 1.31762C27.2311 0.694568 25.7784 0.429051 24.3314 0.547942C20.9281 0.934216 20.0412 2.50493 17 2.80471C13.9589 2.505 13.0719 0.934216 9.66854 0.547942C8.22156 0.429073 6.76885 0.694599 5.45748 1.31765C4.14611 1.94069 3.02261 2.89914 2.20073 4.09597C0.248625 7.07771 0.677087 11.5315 3.48378 14.9393C4.09654 15.6596 4.45553 16.5614 4.50549 17.5057C4.67382 21.8387 5.49789 34.0282 9.45222 34.8536C12.5025 35.4902 10.8897 20.9114 17 21.1001C23.1102 20.9113 21.4975 35.4901 24.5477 34.8536C28.5021 34.0282 29.3262 21.8387 29.4945 17.5057C29.5444 16.5614 29.9034 15.6596 30.5162 14.9393C33.3229 11.5315 33.7514 7.07771 31.7992 4.09597V4.09597Z" fill="white"/>
<path d="M31.7995 4.09594C30.9127 2.11708 22.9692 -1.34487 24.3316 0.54792C26.4977 3.5572 27.3096 9.20577 26.6365 15.3572C26.0581 20.6439 22.7604 32.2589 22.7604 32.2589C22.5026 33.8389 23.447 35.2371 24.0557 35.1406C25.7373 34.8738 29.6732 29.7515 29.4945 17.5057C29.5209 16.5564 29.8829 15.6471 30.5162 14.9393C31.7356 13.4392 32.5037 11.6236 32.7309 9.70378C32.9581 7.784 32.6351 5.83919 31.7995 4.09594V4.09594Z" fill="#D0CFCE"/>
<path d="M31.7992 4.09597C30.9774 2.89912 29.8539 1.94066 28.5425 1.31762C27.2311 0.694568 25.7784 0.429051 24.3314 0.547942C20.9281 0.934216 20.0412 2.50493 17 2.80471C13.9589 2.505 13.0719 0.934216 9.66854 0.547942C8.22156 0.429073 6.76885 0.694599 5.45748 1.31765C4.14611 1.94069 3.02261 2.89914 2.20073 4.09597C0.248625 7.07771 0.677087 11.5315 3.48378 14.9393C4.09654 15.6596 4.45553 16.5614 4.50549 17.5057C4.67382 21.8387 5.49789 34.0282 9.45222 34.8536C12.5025 35.4902 10.8897 20.9114 17 21.1001C23.1102 20.9113 21.4975 35.4901 24.5477 34.8536C28.5021 34.0282 29.3262 21.8387 29.4945 17.5057C29.5444 16.5614 29.9034 15.6596 30.5162 14.9393C33.3229 11.5315 33.7514 7.07771 31.7992 4.09597V4.09597Z" stroke="black" stroke-miterlimit="10"/>
</svg>
